<?xml version="1.0" encoding="UTF-8" standalone="no"?>
<!-- Created with Inkscape (http://www.inkscape.org/) -->

<svg
   version="1.1"
   id="svg1"
   width="557"
   height="532"
   viewBox="0 0 557 532"
   xmlns="http://www.w3.org/2000/svg"
   xmlns:svg="http://www.w3.org/2000/svg">
  <defs
     id="defs1" />
  <g
     id="g1">
    <g
       id="g5"
       transform="matrix(0.96733294,0,0,0.9696141,9.1135959,7.0722919)">
      <path
         style="fill:#95a8af"
         d="M 35.155436,530.41053 C 26.440754,528.50314 20.078199,524.79269 13.149918,517.57761 3.492155,507.52005 0.07124306,498.47579 0.07124306,483 c 0,-16.026 3.97764984,-25.88894 14.52565394,-36.01765 7.498704,-7.20063 14.746081,-10.75998 25.200047,-12.37634 l 7.65895,-1.1842 22.293904,-75.32751 22.293904,-75.32752 -4.771851,-5.47161 C 70.079171,257.58128 59.042982,235.42281 54.373088,211.24102 50.912775,193.32271 52.554294,165.41741 58.136566,147.26309 60.845564,138.45305 69.887963,120.43547 76.137201,111.39563 91.740596,88.824522 117.24209,69.349153 141.43535,61.527738 158.56998,55.988301 168.04837,54.582854 188,54.623179 c 17.43367,0.03524 19.17732,0.216147 30.25108,3.138683 20.78565,5.485657 36.51208,13.567984 53.11088,27.295425 15.72187,13.002207 26.11096,26.465433 35.79935,46.392403 2.82123,5.80267 5.40158,10.54863 5.7341,10.54658 0.73488,-0.005 42.22426,-21.79785 90.19545,-47.37738 L 438.5,75.73778 438.504,60.61889 C 438.508,45.884059 438.5903,45.296779 441.75077,37.5 445.80625,27.495336 453.03651,17.793211 460.64644,12.144355 468.54615,6.2803846 472.78762,4.2282771 481.74099,1.9383914 512.82792,-6.0123067 544.7032,11.813288 554.27224,42.5 c 1.71392,5.496335 2.1688,9.362902 2.11758,18 -0.0725,12.222497 -1.94417,19.407405 -7.6848,29.5 -6.52874,11.47818 -22.10335,23.65851 -34.45492,26.94593 l -4.25,1.13116 v 120.4515 120.4515 l 6.25,2.85494 c 17.98963,8.2175 28.87661,25.00207 28.99974,44.70922 0.22469,35.96108 -38.2932,59.86013 -70.85155,43.96099 -12.78106,-6.24135 -22.5479,-18.55388 -25.85841,-32.59831 -1.86885,-7.92837 -1.89236,-12.56607 -0.10599,-20.90693 1.26028,-5.88448 1.23464,-6.65077 -0.27084,-8.09222 -1.67603,-1.60474 -29.50984,-19.39866 -45.04294,-28.79557 -4.609,-2.78826 -8.80303,-4.80811 -9.32008,-4.48856 -2.09405,1.29419 -2.41499,5.02151 -0.97374,11.30894 2.24451,9.79173 2.15928,35.21854 -0.15443,46.06741 -6.7391,31.59936 -23.31516,58.34122 -47.33925,76.3716 -32.31813,24.25515 -72.21855,30.98167 -110.59134,18.6438 -29.14217,-9.36998 -55.97756,-31.2524 -70.22715,-57.2654 -2.03366,-3.7125 -4.27091,-6.75 -4.97166,-6.75 -1.15824,0 -61.340876,28.46518 -62.380352,29.50466 -0.244648,0.24465 -0.359252,3.99482 -0.254676,8.33371 0.341654,14.17526 -4.511067,26.76769 -13.933265,36.15573 -12.274171,12.22967 -28.921949,16.55238 -47.818631,12.41643 z M 295.17543,486.10884 c 35.96716,-9.31991 62.02571,-35.52378 72.45693,-72.86098 C 369.69348,405.87034 370.76614,382 369.03654,382 c -0.65997,0 -3.07568,1.49706 -5.36824,3.3268 -26.72676,21.33112 -65.72091,31.6304 -99.19812,26.20057 -19.83719,-3.2175 -41.18991,-11.70189 -57.17928,-22.71991 -7.57194,-5.21769 -25.50469,-21.96288 -28.64403,-26.74713 -0.88048,-1.34181 -1.81759,-2.22295 -2.08247,-1.95807 -0.26487,0.26488 -1.17523,4.45918 -2.023,9.32066 -5.10203,29.25723 2.69043,59.58789 21.22416,82.611 15.08102,18.73406 38.36137,32.28242 61.73444,35.92734 9.1234,1.42275 28.76244,0.45715 37.67543,-1.85242 z M 124.5,431.52947 c 13.75,-6.43726 25.3742,-12.0615 25.83155,-12.49833 0.45735,-0.43683 0.0619,-5.39686 -0.8787,-11.02228 -1.3248,-7.92286 -1.58872,-13.75303 -1.17104,-25.86845 0.59681,-17.31088 2.6047,-26.65014 8.96474,-41.69752 l 3.40548,-8.0571 -1.84411,-5.42527 c -1.01425,-2.9839 -2.39846,-5.94231 -3.07601,-6.57424 -0.67755,-0.63193 -4.38191,-2.15939 -8.23191,-3.39435 -8.82917,-2.83214 -19.85158,-7.84576 -27.60908,-12.55819 -3.30451,-2.00739 -6.14206,-3.48868 -6.30567,-3.29177 -0.16361,0.19692 -9.4254,31.38575 -20.581749,69.30853 l -20.284273,68.9505 2.198176,1.5495 c 1.208996,0.85222 4.218604,3.23186 6.688016,5.28809 l 4.489842,3.73858 6.702369,-3.3718 C 96.483934,444.75087 110.75,437.96672 124.5,431.52947 Z m 346.5,-66.532 c 2.475,-1.64669 6.075,-3.50341 8,-4.12605 1.925,-0.62263 4.0625,-1.57852 4.75,-2.12419 0.98756,-0.78382 1.24678,-25.89866 1.23469,-119.61967 -0.008,-65.24516 -0.34592,-119.11215 -0.75,-119.70444 -0.40408,-0.59228 -3.20969,-1.87117 -6.23469,-2.84197 -6.89518,-2.21284 -15.34771,-7.29008 -21.81176,-13.10182 C 453.44808,101.0157 450.94719,99 450.63069,99 c -0.31651,0 -16.90039,8.69689 -36.85308,19.32643 -19.95268,10.62953 -44.26511,23.55788 -54.02761,28.72967 -9.7625,5.17178 -17.75,9.88522 -17.75,10.47431 0,0.58908 1.9125,2.00639 4.25,3.14957 5.30023,2.59213 18.16632,11.8064 26.03383,18.64456 11.80328,10.25898 24.56854,27.58274 31.7017,43.02243 9.21715,19.95049 12.53054,37.20264 11.71606,61.00321 -0.56904,16.62853 -1.92401,24.91954 -6.37534,39.01049 -2.07988,6.58398 -2.27311,8.12009 -1.16075,9.22766 1.3878,1.38185 56.95477,36.33342 57.8345,36.37785 0.275,0.0139 2.525,-1.32203 5,-2.96871 z M 150.64485,276.24776 c 0.30525,-28.97076 8.9511,-54.62664 26.08689,-77.41076 23.32789,-31.01725 58.43612,-50.25016 95.93935,-52.55725 12.21877,-0.75167 12.48369,-0.97049 9.08587,-7.50471 C 270.92952,117.95323 254.34313,101.64142 233.7389,91.551896 204.07938,77.028156 169.55925,76.607458 140.41226,90.414521 103.68396,107.81288 80.302065,142.69385 78.349084,183 c -2.075865,42.84224 20.900575,82.0974 60.123516,102.7208 12.4056,6.52286 12.00039,6.83821 12.17225,-9.47304 z"
         id="path11" />
      <path
         style="fill:#fc8132"
         d="M 40,530.96545 C 12.184499,526.02471 -5.0905121,499.21637 1.5076427,471.23084 c 2.1605195,-9.16366 5.9600604,-15.88641 12.8716313,-22.77453 7.26168,-7.23703 14.596964,-10.97198 24.784143,-12.61947 4.035121,-0.65256 7.862881,-1.67031 8.506134,-2.26166 C 48.312805,432.98383 54.087368,414.725 60.501915,393 87.223009,302.50011 93,282.85447 93,282.48476 93,282.27072 90.267497,279.03659 86.927771,275.2978 79.977939,267.51753 71.607715,255.27837 67.188223,246.43411 62.780142,237.61269 57.311861,221.29636 55.39355,211.24102 53.183195,199.65484 53.182791,176.78413 55.392709,163.59856 62.456253,121.45362 95.323887,80.563738 134.5,65.182975 c 29.526,-11.592072 60.68148,-13.194741 90,-4.629689 34.95013,10.21026 66.69434,38.26288 82.64377,73.032984 2.45451,5.35089 4.92285,9.41373 5.71923,9.41373 0.77058,0 27.10414,-13.68266 58.51903,-30.40591 31.41488,-16.723244 59.71571,-31.672012 62.89074,-33.219479 4.24672,-2.069803 5.60797,-3.218172 5.1494,-4.344094 -1.57204,-3.859781 -1.60001,-22.670493 -0.0435,-29.27382 5.12019,-21.7223 23.29843,-39.8244286 44.50608,-44.3197492 30.07041,-6.3739319 60.45856,10.9632302 69.58577,39.7003342 5.14876,16.210914 4.09753,30.201751 -3.41417,45.439576 -6.906,14.009122 -20.11516,25.283602 -34.81702,29.717542 -6.35387,1.91627 -7.24458,2.46796 -6.78992,4.2056 0.28782,1.1 0.52946,55.44864 0.53697,120.77475 L 509,360.0495 l 2.75,1.02703 c 10.48367,3.9153 19.59004,11.10318 25.25906,19.93759 9.53641,14.8612 9.55945,36.07465 0.0553,50.88563 -17.28433,26.93529 -55.43584,30.28919 -76.71945,6.7444 -9.90962,-10.96242 -14.04358,-26.3924 -11.01829,-41.12569 1.29498,-6.30661 1.38021,-8.21367 0.40616,-9.0877 -1.35638,-1.2171 -41.15862,-26.37527 -49.63198,-31.37134 -4.26624,-2.51547 -5.59484,-2.89427 -6.7599,-1.92735 -2.87124,2.38292 -3.19432,4.38519 -1.7594,10.90399 0.78256,3.55517 1.70143,11.86394 2.04194,18.46394 1.35096,26.18529 -6.91313,54.06385 -22.95658,77.4431 -13.86626,20.20656 -39.07528,38.54306 -63.25756,46.01221 -50.13868,15.48626 -108.24454,-5.62126 -137.30455,-49.87722 -3.13119,-4.76853 -6.29028,-10.11186 -7.02021,-11.87407 C 162.27371,444.24659 161.04416,443 159.92428,443 c -1.9464,0 -61.572246,28.24797 -63.324494,30.00021 -0.580347,0.58035 -0.917606,4.41516 -0.770916,8.76574 C 96.865326,512.50552 69.892832,536.27518 40,530.96545 Z M 293.96162,487.48883 C 312.62325,483.12355 326.95799,475.04684 341,460.9857 355.0572,446.90935 362.34574,434.60322 368.23591,415 c 2.29663,-7.64349 3.72512,-32.43897 1.96995,-34.19414 -0.74614,-0.74614 -2.39606,0.0355 -5.57719,2.64222 -6.97798,5.71793 -24.9016,16.12622 -33.43802,19.41755 -39.6368,15.28249 -83.50817,10.73687 -119.67695,-12.40002 -9.07271,-5.80374 -23.10126,-18.02414 -28.6736,-24.97782 -2.8758,-3.5887 -5.70379,-6.36941 -6.28442,-6.17935 -3.32144,1.08721 -5.59733,27.40505 -3.63688,42.05607 5.86552,43.83466 38.94179,78.99059 81.98986,87.14494 9.69607,1.83668 28.99404,1.33233 39.05296,-1.02062 z M 118.5,435.50405 c 17.05,-8.05637 31.62067,-15.25231 32.37927,-15.99098 1.17236,-1.14157 1.17236,-2.36839 0,-8.17806 -0.87124,-4.31745 -1.37549,-13.46501 -1.36902,-24.83501 0.0117,-20.63838 1.56382,-28.9087 8.44992,-45.02608 l 3.90716,-9.14497 -2.30941,-6.41447 -2.30941,-6.41448 -9.87425,-3.55384 C 134.59978,311.34851 130.00267,309.24331 121.6478,304.16497 114.4951,299.81735 112,299.08606 112,301.3373 c 0,0.73552 -4.45206,16.37302 -9.89348,34.75 -24.894241,84.07396 -29.431108,99.58095 -29.846132,102.01396 -0.376136,2.20502 0.217609,2.99022 3.897943,5.15483 2.387918,1.40447 5.44507,3.73467 6.793672,5.17822 1.348601,1.44355 2.923601,2.42057 3.5,2.17116 C 87.028401,450.35606 101.45,443.56042 118.5,435.50405 Z m 352.3894,-69.33273 c 2.53583,-1.55577 6.75559,-3.64476 9.37724,-4.64221 3.1537,-1.19987 4.93841,-2.52677 5.27426,-3.92132 0.27919,-1.15929 0.3842,-55.37102 0.23336,-120.47052 L 485.5,118.77454 l -5.52828,-1.71045 c -8.67989,-2.68556 -17.59134,-7.91705 -23.99452,-14.08606 -3.23688,-3.118495 -6.24343,-5.338293 -6.68122,-4.932882 C 448.85819,98.450559 424.65,111.45699 395.5,126.94832 c -29.15,15.49134 -53.61449,28.77089 -54.36553,29.51012 -1.15059,1.13249 -0.91448,1.61689 1.5,3.07737 32.82253,19.85386 52.61574,41.96241 63.91105,71.38716 5.68422,14.80763 7.49654,24.41506 8.12593,43.07703 0.63186,18.73507 -0.54308,28.03939 -5.85792,46.38897 -3.0843,10.64858 -3.11153,10.92058 -1.23373,12.32108 1.05611,0.78767 11.3702,7.28729 22.9202,14.4436 11.55,7.15631 23.925,14.97042 27.5,17.36469 3.575,2.39427 6.90023,4.38212 7.3894,4.41744 0.48917,0.0353 2.96417,-1.20868 5.5,-2.76446 z M 151.34596,284.03591 c -0.81073,-7.7567 1.31442,-27.43414 4.1857,-38.75664 12.72209,-50.16785 53.87969,-87.9212 105.39456,-96.67711 5.18441,-0.88119 12.15941,-1.60905 15.5,-1.61747 8.09438,-0.0204 9.42251,-0.89781 7.81311,-5.16159 C 279.42061,129.05686 262.35515,108.64311 248.48699,99.056055 199.35095,65.088339 133.63775,75.825644 98.344446,123.58881 75.546028,154.44239 70.875369,195.01436 85.952587,231.23147 c 9.818149,23.58425 33.977363,48.17531 56.781053,57.796 8.43906,3.56038 9.44523,2.97722 8.61232,-4.99156 z"
         id="path10" />
      <path
         style="fill:#f47c2f"
         d="M 40,530.96545 C 12.184499,526.02471 -5.0905121,499.21637 1.5076427,471.23084 c 2.1605195,-9.16366 5.9600604,-15.88641 12.8716313,-22.77453 7.26168,-7.23703 14.596964,-10.97198 24.784143,-12.61947 4.035121,-0.65256 7.862881,-1.67031 8.506134,-2.26166 C 48.312805,432.98383 54.087368,414.725 60.501915,393 87.223009,302.50011 93,282.85447 93,282.48476 93,282.27072 90.267497,279.03659 86.927771,275.2978 79.977939,267.51753 71.607715,255.27837 67.188223,246.43411 62.780142,237.61269 57.311861,221.29636 55.39355,211.24102 53.183195,199.65484 53.182791,176.78413 55.392709,163.59856 62.456253,121.45362 95.323887,80.563738 134.5,65.182975 c 29.526,-11.592072 60.68148,-13.194741 90,-4.629689 34.95013,10.21026 66.69434,38.26288 82.64377,73.032984 2.45451,5.35089 4.92285,9.41373 5.71923,9.41373 0.77058,0 27.10414,-13.663 58.51903,-30.36222 75.09356,-39.917518 70.68939,-37.667693 71.07061,-36.30578 1.90009,6.788222 4.10426,11.298322 8.78294,17.971409 1.06882,1.52443 0.96099,1.988515 -0.69704,3 -1.0788,0.658125 -25.8288,13.934641 -55,29.503371 -29.1712,15.56873 -53.65303,28.91179 -54.40407,29.65125 -1.15066,1.1329 -0.91462,1.61721 1.5,3.07778 32.82253,19.85386 52.61574,41.96241 63.91105,71.38716 5.60681,14.606 7.48473,24.44726 8.14361,42.6767 0.66027,18.26799 -0.74769,29.60511 -5.78063,46.54661 C 407.30883,325.531 406,330.36261 406,330.88321 c 0,0.95398 5.97982,4.85828 38,24.8107 9.625,5.99752 18.45632,11.51809 19.62517,12.26793 1.89273,1.21422 2.65833,1.03798 7,-1.61145 2.68115,-1.63614 6.89852,-3.77514 9.37191,-4.75335 2.47339,-0.97821 4.83204,-2.30022 5.24144,-2.9378 0.4094,-0.63758 0.73752,-55.31539 0.72917,-121.50625 l -0.0152,-120.34701 11.25167,-0.0667 c 10.40531,-0.0617 11.25928,0.0773 11.3527,1.84701 0.0556,1.05252 0.17799,55.81232 0.27207,121.68843 L 509,360.0495 l 2.75,1.02703 c 10.48367,3.9153 19.59004,11.10318 25.25906,19.93759 9.53641,14.8612 9.55945,36.07465 0.0553,50.88563 -17.28433,26.93529 -55.43584,30.28919 -76.71945,6.7444 -9.90962,-10.96242 -14.04358,-26.3924 -11.01829,-41.12569 1.29498,-6.30661 1.38021,-8.21367 0.40616,-9.0877 -1.35638,-1.2171 -41.15862,-26.37527 -49.63198,-31.37134 -4.26624,-2.51547 -5.59484,-2.89427 -6.7599,-1.92735 -2.87124,2.38292 -3.19432,4.38519 -1.7594,10.90399 0.78256,3.55517 1.70143,11.86394 2.04194,18.46394 1.35096,26.18529 -6.91313,54.06385 -22.95658,77.4431 -13.86626,20.20656 -39.07528,38.54306 -63.25756,46.01221 -50.13868,15.48626 -108.24454,-5.62126 -137.30455,-49.87722 -3.13119,-4.76853 -6.29028,-10.11186 -7.02021,-11.87407 C 162.27371,444.24659 161.04416,443 159.92428,443 c -1.9464,0 -61.572246,28.24797 -63.324494,30.00021 -0.580347,0.58035 -0.917606,4.41516 -0.770916,8.76574 C 96.865326,512.50552 69.892832,536.27518 40,530.96545 Z M 293.96162,487.48883 C 312.62325,483.12355 326.95799,475.04684 341,460.9857 355.0572,446.90935 362.34574,434.60322 368.23591,415 c 2.29663,-7.64349 3.72512,-32.43897 1.96995,-34.19414 -0.74614,-0.74614 -2.39606,0.0355 -5.57719,2.64222 -6.97798,5.71793 -24.9016,16.12622 -33.43802,19.41755 -39.6368,15.28249 -83.50817,10.73687 -119.67695,-12.40002 -9.07271,-5.80374 -23.10126,-18.02414 -28.6736,-24.97782 -2.8758,-3.5887 -5.70379,-6.36941 -6.28442,-6.17935 -3.32144,1.08721 -5.59733,27.40505 -3.63688,42.05607 5.86552,43.83466 38.94179,78.99059 81.98986,87.14494 9.69607,1.83668 28.99404,1.33233 39.05296,-1.02062 z M 118.5,435.50405 c 17.05,-8.05637 31.62067,-15.25231 32.37927,-15.99098 1.17236,-1.14157 1.17236,-2.36839 0,-8.17806 -0.87124,-4.31745 -1.37549,-13.46501 -1.36902,-24.83501 0.0117,-20.63838 1.56382,-28.9087 8.44992,-45.02608 l 3.90716,-9.14497 -2.30941,-6.41447 -2.30941,-6.41448 -9.87425,-3.55384 C 134.59978,311.34851 130.00267,309.24331 121.6478,304.16497 114.4951,299.81735 112,299.08606 112,301.3373 c 0,0.73552 -4.45206,16.37302 -9.89348,34.75 -24.894241,84.07396 -29.431108,99.58095 -29.846132,102.01396 -0.376136,2.20502 0.217609,2.99022 3.897943,5.15483 2.387918,1.40447 5.44507,3.73467 6.793672,5.17822 1.348601,1.44355 2.923601,2.42057 3.5,2.17116 C 87.028401,450.35606 101.45,443.56042 118.5,435.50405 Z m 32.84596,-151.46814 c -0.81073,-7.7567 1.31442,-27.43414 4.1857,-38.75664 12.72209,-50.16785 53.87969,-87.9212 105.39456,-96.67711 5.18441,-0.88119 12.15941,-1.60905 15.5,-1.61747 8.09438,-0.0204 9.42251,-0.89781 7.81311,-5.16159 C 279.42061,129.05686 262.35515,108.64311 248.48699,99.056055 199.35095,65.088339 133.63775,75.825644 98.344446,123.58881 75.546028,154.44239 70.875369,195.01436 85.952587,231.23147 c 9.818149,23.58425 33.977363,48.17531 56.781053,57.796 8.43906,3.56038 9.44523,2.97722 8.61232,-4.99156 z M 555.34941,60 c 0,-4.675 0.17226,-6.5875 0.3828,-4.25 0.21053,2.3375 0.21053,6.1625 0,8.5 -0.21054,2.3375 -0.3828,0.425 -0.3828,-4.25 z M 491.75,1.2627581 c 2.8875,-0.2020025 7.6125,-0.2020025 10.5,0 2.8875,0.2020025 0.525,0.3672772 -5.25,0.3672772 -5.775,0 -8.1375,-0.1652747 -5.25,-0.3672772 z"
         id="path9" />
      <path
         style="fill:#708c96"
         d="M 40,530.96545 C 12.184499,526.02471 -5.0905121,499.21637 1.5076427,471.23084 c 2.1605195,-9.16366 5.9600604,-15.88641 12.8716313,-22.77453 7.26168,-7.23703 14.596964,-10.97198 24.784143,-12.61947 4.035121,-0.65256 7.862881,-1.67031 8.506134,-2.26166 C 48.312805,432.98383 54.087368,414.725 60.501915,393 87.223009,302.50011 93,282.85447 93,282.48476 93,282.27072 90.267497,279.03659 86.927771,275.2978 79.977939,267.51753 71.607715,255.27837 67.188223,246.43411 62.780142,237.61269 57.311861,221.29636 55.39355,211.24102 53.183195,199.65484 53.182791,176.78413 55.392709,163.59856 62.456253,121.45362 95.323887,80.563738 134.5,65.182975 c 29.526,-11.592072 60.68148,-13.194741 90,-4.629689 34.95013,10.21026 66.69434,38.26288 82.64377,73.032984 2.4609,5.36482 4.92207,9.41373 5.72223,9.41373 0.77222,0 26.65578,-13.44458 57.51902,-29.87685 66.74504,-35.536534 68.65818,-36.511272 69.57805,-35.449808 0.39401,0.454662 1.30952,2.401658 2.03447,4.326658 0.72496,1.925 2.87636,6.12322 4.7809,9.329377 1.91417,3.222366 3.07345,6.192409 2.59218,6.64113 C 448.89178,98.416971 424.65,111.45699 395.5,126.94832 c -29.15,15.49134 -53.61449,28.77089 -54.36553,29.51012 -1.15059,1.13249 -0.91448,1.61689 1.5,3.07737 32.82253,19.85386 52.61574,41.96241 63.91105,71.38716 5.60681,14.606 7.48473,24.44726 8.14361,42.6767 0.66027,18.26799 -0.74769,29.60511 -5.78063,46.54661 C 407.30883,325.531 406,330.36261 406,330.88321 c 0,0.95398 5.97982,4.85828 38,24.8107 9.625,5.99752 18.45632,11.51809 19.62517,12.26793 1.89273,1.21422 2.65833,1.03798 7,-1.61145 2.68115,-1.63614 6.89852,-3.77514 9.37191,-4.75335 2.47339,-0.97821 4.829,-2.30022 5.23469,-2.9378 0.40568,-0.63758 0.7445,-54.79367 0.75292,-120.34686 L 486,119.12477 l 10.95094,-0.31239 c 10.24321,-0.29219 10.98554,-0.18313 11.48635,1.68762 0.29447,1.1 0.54155,55.44864 0.54906,120.77475 L 509,360.0495 l 2.75,1.02703 c 10.48367,3.9153 19.59004,11.10318 25.25906,19.93759 9.53641,14.8612 9.55945,36.07465 0.0553,50.88563 -17.28433,26.93529 -55.43584,30.28919 -76.71945,6.7444 -9.90962,-10.96242 -14.04358,-26.3924 -11.01829,-41.12569 1.29498,-6.30661 1.38021,-8.21367 0.40616,-9.0877 -1.35638,-1.2171 -41.15862,-26.37527 -49.63198,-31.37134 -4.26624,-2.51547 -5.59484,-2.89427 -6.7599,-1.92735 -2.87124,2.38292 -3.19432,4.38519 -1.7594,10.90399 0.78256,3.55517 1.70143,11.86394 2.04194,18.46394 1.35096,26.18529 -6.91313,54.06385 -22.95658,77.4431 -13.86626,20.20656 -39.07528,38.54306 -63.25756,46.01221 -50.13868,15.48626 -108.24454,-5.62126 -137.30455,-49.87722 -3.13119,-4.76853 -6.29028,-10.11186 -7.02021,-11.87407 C 162.27371,444.24659 161.04416,443 159.92428,443 c -1.9464,0 -61.572246,28.24797 -63.324494,30.00021 -0.580347,0.58035 -0.917606,4.41516 -0.770916,8.76574 C 96.865326,512.50552 69.892832,536.27518 40,530.96545 Z M 293.96162,487.48883 C 312.62325,483.12355 326.95799,475.04684 341,460.9857 355.0572,446.90935 362.34574,434.60322 368.23591,415 c 2.29663,-7.64349 3.72512,-32.43897 1.96995,-34.19414 -0.74614,-0.74614 -2.39606,0.0355 -5.57719,2.64222 -6.97798,5.71793 -24.9016,16.12622 -33.43802,19.41755 -39.6368,15.28249 -83.50817,10.73687 -119.67695,-12.40002 -9.07271,-5.80374 -23.10126,-18.02414 -28.6736,-24.97782 -2.8758,-3.5887 -5.70379,-6.36941 -6.28442,-6.17935 -3.32144,1.08721 -5.59733,27.40505 -3.63688,42.05607 5.86552,43.83466 38.94179,78.99059 81.98986,87.14494 9.69607,1.83668 28.99404,1.33233 39.05296,-1.02062 z M 118.5,435.50405 c 17.05,-8.05637 31.62067,-15.25231 32.37927,-15.99098 1.17236,-1.14157 1.17236,-2.36839 0,-8.17806 -0.87124,-4.31745 -1.37549,-13.46501 -1.36902,-24.83501 0.0117,-20.63838 1.56382,-28.9087 8.44992,-45.02608 l 3.90716,-9.14497 -2.30941,-6.41447 -2.30941,-6.41448 -9.87425,-3.55384 C 134.59978,311.34851 130.00267,309.24331 121.6478,304.16497 114.4951,299.81735 112,299.08606 112,301.3373 c 0,0.73552 -4.45206,16.37302 -9.89348,34.75 -24.894241,84.07396 -29.431108,99.58095 -29.846132,102.01396 -0.376136,2.20502 0.217609,2.99022 3.897943,5.15483 2.387918,1.40447 5.44507,3.73467 6.793672,5.17822 1.348601,1.44355 2.923601,2.42057 3.5,2.17116 C 87.028401,450.35606 101.45,443.56042 118.5,435.50405 Z m 32.84596,-151.46814 c -0.81073,-7.7567 1.31442,-27.43414 4.1857,-38.75664 12.72209,-50.16785 53.87969,-87.9212 105.39456,-96.67711 5.18441,-0.88119 12.15941,-1.60905 15.5,-1.61747 8.09438,-0.0204 9.42251,-0.89781 7.81311,-5.16159 C 279.42061,129.05686 262.35515,108.64311 248.48699,99.056055 199.35095,65.088339 133.63775,75.825644 98.344446,123.58881 75.546028,154.44239 70.875369,195.01436 85.952587,231.23147 c 9.818149,23.58425 33.977363,48.17531 56.781053,57.796 8.43906,3.56038 9.44523,2.97722 8.61232,-4.99156 z"
         id="path8" />
      <path
         style="fill:#327b84"
         d="M 34.48831,529.06883 C 18.587209,523.40528 8.7902141,513.94869 2.8190824,498.5 c -3.2544669,-8.42005 -3.24214788,-22.42233 0.027273,-31 3.3961834,-8.91025 6.3394379,-13.43984 12.5489746,-19.31256 7.158513,-6.77023 16.607436,-11.25743 25.149122,-11.94307 3.540158,-0.28417 6.920821,-1.10006 7.512585,-1.8131 0.993435,-1.19701 5.478236,-16.03954 34.509889,-114.21107 C 88.305117,300.81631 93,284.12057 93,283.11855 c 0,-1.00202 -2.764284,-4.92611 -6.142853,-8.7202 C 72.392392,258.15461 62.836549,239.41789 56.867604,215.59605 53.892171,203.7212 53.23216,180.84602 55.451051,166.5 61.014739,130.52853 82.001709,98.254827 113.7694,76.818214 134.11773,63.087301 159.37143,55.908886 187.5,55.860143 c 50.89003,-0.08819 96.67084,29.694358 118.95809,77.387767 2.4672,5.27967 4.96093,9.89302 5.54161,10.25191 1.06392,0.65753 11.0205,-4.48631 85.0003,-43.913512 22.275,-11.871361 41.19861,-21.584746 42.05246,-21.5853 0.94607,-6.14e-4 2.21966,1.85444 3.26064,4.749299 0.9395,2.612669 3.0289,6.745269 4.64312,9.183556 1.61421,2.438287 2.73088,4.763409 2.48148,5.166939 -0.24939,0.403529 -19.6874,10.954198 -43.19557,23.445928 -23.50817,12.49173 -47.33487,25.15334 -52.94823,28.13691 -5.61335,2.98357 -11.20809,6.23604 -12.43276,7.22772 l -2.22666,1.80304 2.43276,1.49914 c 31.75867,19.57063 47.11481,35.11426 59.85281,60.58356 9.26085,18.51685 13.29867,36.32013 13.31392,58.7029 0.0108,15.84821 -1.87888,28.77649 -6.23883,42.6831 -1.56192,4.98191 -2.63363,9.59542 -2.38158,10.25224 0.25205,0.65682 13.93821,9.61153 30.4137,19.89935 l 29.95544,18.70513 3.92542,-2.59771 c 2.15898,-1.42875 6.55037,-3.66457 9.75865,-4.9685 L 485.5,360.10284 485.75402,239.55142 486.00803,119 H 497.00402 508 v 120.53554 120.53553 l 4.75,1.99089 c 8.81544,3.69485 11.49191,5.41951 17.18747,11.07522 13.37021,13.27668 17.61912,34.8488 10.22909,51.93409 -10.63929,24.59737 -40.57241,35.75197 -64.9996,24.22215 -6.76599,-3.19359 -16.99494,-12.716 -20.38198,-18.97413 -4.60252,-8.50392 -6.08147,-15.51963 -5.42061,-25.71377 0.32465,-5.00804 0.86207,-10.68465 1.19425,-12.6147 l 0.60396,-3.50918 -26.82798,-16.92665 c -14.75538,-9.30966 -27.8022,-17.11288 -28.99292,-17.3405 -1.50995,-0.28865 -2.68429,0.37877 -3.88154,2.206 -1.61,2.45717 -1.61548,3.22684 -0.0884,12.39334 7.86234,47.19376 -12.24782,95.4204 -50.94462,122.17148 C 319.40705,505.51649 298.38724,512 272.29662,512 245.19682,512 222.38813,504.51916 199.61704,488.16242 188.81361,480.40218 175.69198,466.22705 169,455.08719 c -3.025,-5.03559 -6.22802,-10.12836 -7.11782,-11.31728 l -1.61783,-2.16167 -6.38217,2.85073 c -3.5102,1.5679 -18.13701,8.56919 -32.50403,15.55843 l -26.121841,12.7077 -0.429377,12.04295 c -0.410082,11.50181 -0.598342,12.38484 -4.189626,19.65131 -5.983061,12.1059 -15.142287,20.1097 -28.123763,24.57598 -7.543525,2.59535 -20.846871,2.63024 -28.025233,0.0735 z m 255.07803,-40.11981 c 42.58396,-7.54255 76.39201,-43.83846 81.54694,-87.5478 1.18627,-10.05852 0.85346,-19.83448 -0.7291,-21.41704 -0.59392,-0.59392 -3.61577,1.0634 -8.12748,4.4575 -38.13858,28.69109 -86.38297,34.62116 -130.45271,16.03489 -18.99887,-8.01271 -40.38936,-23.97015 -50.38596,-37.58823 C 179.44443,360.19975 177.22906,358 176.49499,358 c -1.75192,0 -4.1968,10.85477 -5.07056,22.51227 -0.76226,10.16989 0.61348,23.12741 3.64936,34.37176 9.98503,36.98269 39.94527,65.63313 76.92621,73.56314 7.81176,1.67512 29.32005,1.96245 37.56634,0.50185 z M 89.55,450.08018 c 0.5225,-0.5059 14.44664,-7.2686 30.94252,-15.02823 16.49589,-7.75963 30.57004,-14.68593 31.27588,-15.39178 1.04448,-1.04448 0.96828,-2.66792 -0.40939,-8.72176 -1.23305,-5.41838 -1.69202,-12.05505 -1.69009,-24.43841 0.002,-15.16154 0.28509,-18.05657 2.61434,-26.76999 1.43643,-5.3735 4.28733,-13.6713 6.33534,-18.43956 l 3.72365,-8.66957 -2.42113,-6.98971 -2.42112,-6.98972 -9.5,-3.17437 c -9.32978,-3.11749 -22.67304,-9.34177 -30.16463,-14.07101 -4.83945,-3.05501 -5.65276,-3.01034 -6.4442,0.35393 -0.64732,2.75165 -34.793157,119.21114 -38.409592,131.00166 -1.054644,3.43841 -1.695755,6.82961 -1.424692,7.53599 0.271063,0.70638 2.022977,2.10835 3.893141,3.1155 1.870164,1.00715 4.643167,3.12846 6.162227,4.71402 2.752825,2.87333 6.133962,3.70949 7.937746,1.96301 z M 152.00402,279.25 c 0.007,-22.07249 4.48472,-41.30865 14.02488,-60.25 12.62297,-25.06205 33.81579,-46.11405 58.4047,-58.01662 16.7719,-8.11864 31.85665,-12.10304 51.40992,-13.57912 5.97574,-0.45111 9.50692,-1.15392 9.81364,-1.95323 0.26352,-0.68671 -0.73473,-3.65662 -2.21833,-6.5998 C 271.98481,116.12872 251.12786,96.584516 228.47913,87.350721 214.05617,81.470542 206.04686,79.809815 189.5,79.268421 178.06808,78.894382 172.40388,79.171326 165.68801,80.432678 118.41434,89.311465 82.494012,128.40817 76.966198,177 c -2.224115,19.55091 2.06997,42.19441 11.567962,61 7.529123,14.90732 21.15834,30.68442 35.10318,40.63526 8.13464,5.80475 22.8805,13.36474 26.06813,13.36474 2.27252,0 2.29457,-0.12229 2.29855,-12.75 z"
         id="path7" />
      <path
         style="fill:#476c79"
         d="M 34.48831,529.06883 C 18.587209,523.40528 8.7902141,513.94869 2.8190824,498.5 c -3.2544669,-8.42005 -3.24214788,-22.42233 0.027273,-31 3.3961834,-8.91025 6.3394379,-13.43984 12.5489746,-19.31256 7.158513,-6.77023 16.607436,-11.25743 25.149122,-11.94307 3.540158,-0.28417 6.920821,-1.10006 7.512585,-1.8131 0.993435,-1.19701 5.478236,-16.03954 34.509889,-114.21107 C 88.305117,300.81631 93,284.12057 93,283.11855 c 0,-1.00202 -2.764284,-4.92611 -6.142853,-8.7202 C 72.392392,258.15461 62.836549,239.41789 56.867604,215.59605 53.892171,203.7212 53.23216,180.84602 55.451051,166.5 61.014739,130.52853 82.001709,98.254827 113.7694,76.818214 134.11773,63.087301 159.37143,55.908886 187.5,55.860143 c 50.89003,-0.08819 96.67084,29.694358 118.95809,77.387767 2.4672,5.27967 4.96093,9.89302 5.54161,10.25191 1.06392,0.65753 11.0205,-4.48631 85.0003,-43.913512 22.275,-11.871361 41.19861,-21.584746 42.05246,-21.5853 0.94607,-6.14e-4 2.21966,1.85444 3.26064,4.749299 0.9395,2.612669 3.0289,6.745269 4.64312,9.183556 1.61421,2.438287 2.73088,4.763409 2.48148,5.166939 -0.24939,0.403529 -19.6874,10.954198 -43.19557,23.445928 -23.50817,12.49173 -47.33487,25.15334 -52.94823,28.13691 -5.61335,2.98357 -11.20809,6.23604 -12.43276,7.22772 l -2.22666,1.80304 2.43276,1.49914 c 31.75867,19.57063 47.11481,35.11426 59.85281,60.58356 9.26085,18.51685 13.29867,36.32013 13.31392,58.7029 0.0108,15.84821 -1.87888,28.77649 -6.23883,42.6831 -1.56192,4.98191 -2.63363,9.59542 -2.38158,10.25224 0.25205,0.65682 13.93821,9.61153 30.4137,19.89935 l 29.95544,18.70513 3.92542,-2.59771 c 2.15898,-1.42875 6.55037,-3.66457 9.75865,-4.9685 L 485.5,360.10284 485.75402,239.55142 486.00803,119 H 497.00402 508 v 120.53554 120.53553 l 4.75,1.99089 c 8.81544,3.69485 11.49191,5.41951 17.18747,11.07522 13.37021,13.27668 17.61912,34.8488 10.22909,51.93409 -10.63929,24.59737 -40.57241,35.75197 -64.9996,24.22215 -6.76599,-3.19359 -16.99494,-12.716 -20.38198,-18.97413 -4.60252,-8.50392 -6.08147,-15.51963 -5.42061,-25.71377 0.32465,-5.00804 0.86207,-10.68465 1.19425,-12.6147 l 0.60396,-3.50918 -26.82798,-16.92665 c -14.75538,-9.30966 -27.8022,-17.11288 -28.99292,-17.3405 -1.50995,-0.28865 -2.68429,0.37877 -3.88154,2.206 -1.61,2.45717 -1.61548,3.22684 -0.0884,12.39334 7.86234,47.19376 -12.24782,95.4204 -50.94462,122.17148 C 319.40705,505.51649 298.38724,512 272.29662,512 245.19682,512 222.38813,504.51916 199.61704,488.16242 188.81361,480.40218 175.69198,466.22705 169,455.08719 c -3.025,-5.03559 -6.22802,-10.12836 -7.11782,-11.31728 l -1.61783,-2.16167 -6.38217,2.85073 c -3.5102,1.5679 -18.13701,8.56919 -32.50403,15.55843 l -26.121841,12.7077 -0.429377,12.04295 c -0.410082,11.50181 -0.598342,12.38484 -4.189626,19.65131 -5.983061,12.1059 -15.142287,20.1097 -28.123763,24.57598 -7.543525,2.59535 -20.846871,2.63024 -28.025233,0.0735 z m 255.07803,-40.11981 c 42.58396,-7.54255 76.39201,-43.83846 81.54694,-87.5478 1.18627,-10.05852 0.85346,-19.83448 -0.7291,-21.41704 -0.59392,-0.59392 -3.61577,1.0634 -8.12748,4.4575 -38.13858,28.69109 -86.38297,34.62116 -130.45271,16.03489 -18.99887,-8.01271 -40.38936,-23.97015 -50.38596,-37.58823 C 179.44443,360.19975 177.22906,358 176.49499,358 c -1.75192,0 -4.1968,10.85477 -5.07056,22.51227 -0.76226,10.16989 0.61348,23.12741 3.64936,34.37176 9.98503,36.98269 39.94527,65.63313 76.92621,73.56314 7.81176,1.67512 29.32005,1.96245 37.56634,0.50185 z M 89.55,450.08018 c 0.5225,-0.5059 14.44664,-7.2686 30.94252,-15.02823 16.49589,-7.75963 30.57004,-14.68593 31.27588,-15.39178 1.04448,-1.04448 0.96828,-2.66792 -0.40939,-8.72176 -1.23305,-5.41838 -1.69202,-12.05505 -1.69009,-24.43841 0.002,-15.16154 0.28509,-18.05657 2.61434,-26.76999 1.43643,-5.3735 4.28733,-13.6713 6.33534,-18.43956 l 3.72365,-8.66957 -2.42113,-6.98971 -2.42112,-6.98972 -9.5,-3.17437 c -9.32978,-3.11749 -22.67304,-9.34177 -30.16463,-14.07101 -4.83945,-3.05501 -5.65276,-3.01034 -6.4442,0.35393 -0.64732,2.75165 -34.793157,119.21114 -38.409592,131.00166 -1.054644,3.43841 -1.695755,6.82961 -1.424692,7.53599 0.271063,0.70638 2.022977,2.10835 3.893141,3.1155 1.870164,1.00715 4.643167,3.12846 6.162227,4.71402 2.752825,2.87333 6.133962,3.70949 7.937746,1.96301 z M 300,386.5552 c 21.26775,-3.20811 42.14557,-13.38742 58.25,-28.40071 3.48866,-3.25229 4.75,-5.17418 4.75,-7.23752 0,-6.85817 -14.04389,-28.31665 -24.89071,-38.03198 -15.75429,-14.11086 -37.1651,-23.84389 -56.2214,-25.5574 l -6.61211,-0.59454 -6.4617,4.95262 c -19.91652,15.26518 -43.99248,25.67497 -64.448,27.86557 -5.70615,0.61108 -7.13938,1.17198 -9.44502,3.69633 -1.49496,1.63677 -3.51152,4.73543 -4.48125,6.88591 l -1.76315,3.90996 4.82355,7.05952 c 16.03639,23.47007 45.37365,41.60294 74.08454,45.79042 9.29534,1.35572 22.06918,1.22245 32.41525,-0.33818 z M 381.43323,324.25 c 2.53583,-5.27225 4.46619,-10.6399 6.74303,-18.75 2.58405,-9.20439 3.61152,-34.29536 1.85368,-45.26739 -4.13122,-25.78614 -18.42198,-50.78729 -38.0362,-66.54288 C 343.34301,186.74083 323.71145,176 319.6613,176 c -2.12644,0 -2.16749,0.25427 -1.81815,11.25924 0.77125,24.29571 -7.13541,52.81835 -20.51836,74.01831 -1.35705,2.1497 -2.25579,4.45988 -1.99721,5.13374 0.25859,0.67385 3.00165,1.79171 6.09571,2.48413 7.45276,1.66785 20.92989,7.01149 28.83932,11.4347 16.54767,9.25398 33.80808,25.66909 44.07856,41.91988 1.99869,3.1625 4.00623,5.75 4.4612,5.75 0.45496,0 1.63885,-1.6875 2.63086,-3.75 z M 192.80147,292.65769 c 18.68265,-14.8396 41.62541,-24.51395 64.56097,-27.22363 7.32256,-0.86511 10.61655,-3.56719 18.04094,-14.79912 9.98183,-15.10093 15.08738,-27.98383 18.22971,-45.99925 1.57243,-9.01493 1.49862,-27.83692 -0.12488,-31.84762 -1.00938,-2.49358 -3.8067,-3.07034 -14.4762,-2.98476 -38.43147,0.30827 -77.47067,26.54191 -94.55102,63.53659 -7.27736,15.76218 -11.27069,37.36512 -9.96245,53.89436 0.78604,9.9314 1.87133,11.76574 6.96123,11.76574 2.59247,0 5.11824,-1.41491 11.3217,-6.34231 z M 152.00402,279.25 c 0.007,-22.07249 4.48472,-41.30865 14.02488,-60.25 12.62297,-25.06205 33.81579,-46.11405 58.4047,-58.01662 16.7719,-8.11864 31.85665,-12.10304 51.40992,-13.57912 5.97574,-0.45111 9.50692,-1.15392 9.81364,-1.95323 0.26352,-0.68671 -0.73473,-3.65662 -2.21833,-6.5998 C 271.98481,116.12872 251.12786,96.584516 228.47913,87.350721 214.05617,81.470542 206.04686,79.809815 189.5,79.268421 178.06808,78.894382 172.40388,79.171326 165.68801,80.432678 118.41434,89.311465 82.494012,128.40817 76.966198,177 c -2.224115,19.55091 2.06997,42.19441 11.567962,61 7.529123,14.90732 21.15834,30.68442 35.10318,40.63526 8.13464,5.80475 22.8805,13.36474 26.06813,13.36474 2.27252,0 2.29457,-0.12229 2.29855,-12.75 z"
         id="path6" />
      <path
         style="fill:#084a5b"
         d="m 40,530.01253 c -0.825,-0.47842 -3.935974,-1.61013 -6.913276,-2.51491 -7.178198,-2.1814 -14.659837,-7.07954 -20.001533,-13.09476 C 8.7208419,509.48821 3.0022679,498.95797 3.0007889,495.83333 3.000355,494.91667 2.4423913,493.9808 1.7608696,493.75362 c -1.75172325,-0.5839 -1.75172325,-20.92334 0,-21.50724 0.6815217,-0.22718 1.2394854,-1.16305 1.2399193,-2.07971 0.00167,-3.53529 6.1760509,-14.47337 11.1220551,-19.70304 5.963894,-6.30594 16.412012,-12.02793 23.644121,-12.94889 9.735193,-1.2397 11.056481,-1.61057 11.728038,-3.29194 C 51.267556,429.78488 94,284.44243 94,282.85151 94,281.8551 91.226492,277.99339 87.83665,274.26993 72.207466,257.10256 60.594752,232.86501 56.352897,208.55841 55.141516,201.61698 54.905069,195.6439 55.341158,183 56.148349,159.59643 59.079372,147.72765 68.761256,128.65719 80.448668,105.63642 97.237416,87.698165 120.09627,73.807313 140.16271,61.613351 172.78853,54.5486 197.84775,56.971107 213.95057,58.527787 231.91014,63.411948 244,69.522355 262.01847,78.629176 283.69656,97.710206 294.53136,114 c 5.9638,8.96638 13.52606,23.28758 14.73197,27.89898 0.30074,1.15001 1.25108,2.36119 2.11187,2.6915 1.51687,0.58208 8.31044,-2.92083 92.1248,-47.501486 18.7,-9.946485 34.52675,-18.085525 35.17054,-18.086756 0.6438,-0.0012 1.45784,1.30581 1.80898,2.904535 0.35114,1.598725 2.1869,5.478245 4.07946,8.621154 1.89256,3.14291 3.43659,5.997362 3.43117,6.343227 -0.005,0.345865 -3.94292,2.714661 -8.75,5.263996 -4.80708,2.54933 -22.69015,12.04391 -39.74015,21.09908 -17.05,9.05517 -36.4,19.29343 -43,22.75169 -12.18338,6.38384 -18.5,10.4572 -18.5,11.93 0,0.44778 3.51383,2.85582 7.80852,5.35121 30.12288,17.50258 51.54686,43.48425 61.62327,74.73287 4.50675,13.97617 5.89381,23.59251 5.91382,41 0.0188,16.36446 -1.70034,27.88372 -6.29258,42.16386 -1.91214,5.94605 -2.6471,9.72199 -2.09254,10.75063 0.47015,0.87203 10.23386,7.39668 21.69716,14.49922 11.46329,7.10254 24.66735,15.39238 29.34235,18.42186 4.675,3.02948 9.21546,5.46421 10.08991,5.4105 0.87445,-0.0537 3.57445,-1.42112 6,-3.03869 2.42555,-1.61757 6.21009,-3.50961 8.41009,-4.20453 2.2,-0.69492 4.5625,-1.70995 5.25,-2.25562 0.9875,-0.78378 1.25,-26.11343 1.25,-120.61967 V 120.5 h 9.99599 9.996 l 0.254,119.96169 0.25401,119.96168 2.5,1.21875 c 1.375,0.67031 5.09076,2.45029 8.25725,3.9555 10.27986,4.88661 20.14441,17.16371 23.19075,28.86248 6.51287,25.01116 -8.41498,50.3895 -33.57942,57.08726 -11.71182,3.11722 -26.85609,0.85904 -36.57071,-5.45309 -15.19861,-9.87538 -22.1301,-23.64017 -20.89235,-41.48875 0.3473,-5.00804 0.73563,-10.85176 0.86296,-12.98606 L 451.5,387.73891 424.00302,370.36946 C 408.87968,360.81626 395.5892,353 394.46863,353 c -1.20719,0 -2.76577,1.23301 -3.82484,3.02586 -1.68378,2.85043 -1.69629,3.55638 -0.2156,12.17622 2.0035,11.66344 2.01438,30.99807 0.0239,42.41255 -8.70006,49.88981 -47.16085,89.58421 -95.84195,98.91604 -10.49621,2.01205 -32.45554,2.03499 -43.6101,0.0456 -36.22379,-6.46055 -70.19581,-31.36707 -86.37577,-63.32624 -1.46186,-2.8875 -3.30482,-5.25 -4.09547,-5.25 -1.53478,0 -60.01385,27.77737 -64.058789,30.42772 -2.262258,1.48229 -2.403724,2.13634 -2.379504,11.00147 0.02848,10.42513 -1.049918,15.58387 -4.808014,23.00012 -5.453798,10.76255 -19.178019,21.57092 -29.482561,23.21868 C 57.709951,528.98218 56,529.6481 56,530.12781 c 0,1.1279 -14.030555,1.02681 -16,-0.11528 z M 291.79216,489.4298 c 18.42721,-3.75389 35.56206,-12.93766 49.31205,-26.4298 18.37425,-18.02966 28.46661,-38.54236 31.01541,-63.0387 1.2103,-11.6321 0.49223,-20.92726 -1.67224,-21.64657 -0.57894,-0.1924 -3.68508,1.69434 -6.90253,4.19274 -14.53344,11.28546 -31.00038,19.4123 -48.64372,24.00686 -13.89482,3.6184 -38.42077,4.56974 -52.90113,2.05199 -18.42493,-3.2036 -40.60962,-12.2878 -53.89812,-22.07023 -10.30222,-7.58407 -20.13624,-16.58275 -25.29276,-23.1443 -6.06034,-7.71163 -7.79571,-7.86402 -9.56733,-0.84015 -8.37444,33.2018 1.78427,71.20099 25.93761,97.02099 13.85006,14.80576 33.03731,25.67231 52.8206,29.91454 9.04012,1.93852 30.23645,1.92927 39.79216,-0.0174 z M 92.124047,449.60598 c 2.406774,-1.3167 17.059793,-8.34247 32.562253,-15.61281 15.50247,-7.27034 28.41978,-13.82722 28.70513,-14.57083 0.28535,-0.74362 -0.14496,-4.40535 -0.95625,-8.13719 -2.19775,-10.10942 -2.93649,-29.43024 -1.50071,-39.24954 1.54948,-10.59696 5.28848,-23.60839 9.29558,-32.34793 l 3.12347,-6.81232 -2.20164,-6.83588 c -1.21091,-3.75974 -2.75295,-7.28474 -3.42676,-7.83334 -0.67382,-0.54859 -4.40159,-1.93783 -8.28393,-3.0872 -7.29906,-2.16088 -24.00893,-9.92716 -31.40542,-14.59636 -2.32203,-1.46583 -4.78975,-2.44723 -5.48383,-2.18089 -0.69408,0.26635 -1.94523,3.11093 -2.78033,6.32129 -1.22735,4.71826 -32.663968,111.53998 -38.164804,129.68412 -0.808233,2.6659 -1.234462,5.45964 -0.947174,6.2083 0.287288,0.74866 2.393898,2.46214 4.681355,3.80774 2.287457,1.34559 5.249954,3.61436 6.583327,5.0417 2.997532,3.20877 4.642863,3.24122 10.199733,0.20114 z M 300,386.5552 c 21.26775,-3.20811 42.14557,-13.38742 58.25,-28.40071 3.48866,-3.25229 4.75,-5.17418 4.75,-7.23752 0,-6.85817 -14.04389,-28.31665 -24.89071,-38.03198 -15.75429,-14.11086 -37.1651,-23.84389 -56.2214,-25.5574 l -6.61211,-0.59454 -6.4617,4.95262 c -19.91652,15.26518 -43.99248,25.67497 -64.448,27.86557 -5.70615,0.61108 -7.13938,1.17198 -9.44502,3.69633 -1.49496,1.63677 -3.51152,4.73543 -4.48125,6.88591 l -1.76315,3.90996 4.82355,7.05952 c 16.03639,23.47007 45.37365,41.60294 74.08454,45.79042 9.29534,1.35572 22.06918,1.22245 32.41525,-0.33818 z M 381.43323,324.25 c 2.53583,-5.27225 4.46619,-10.6399 6.74303,-18.75 2.58405,-9.20439 3.61152,-34.29536 1.85368,-45.26739 -4.13122,-25.78614 -18.42198,-50.78729 -38.0362,-66.54288 C 343.34301,186.74083 323.71145,176 319.6613,176 c -2.12644,0 -2.16749,0.25427 -1.81815,11.25924 0.77125,24.29571 -7.13541,52.81835 -20.51836,74.01831 -1.35705,2.1497 -2.25579,4.45988 -1.99721,5.13374 0.25859,0.67385 3.00165,1.79171 6.09571,2.48413 7.45276,1.66785 20.92989,7.01149 28.83932,11.4347 16.54767,9.25398 33.80808,25.66909 44.07856,41.91988 1.99869,3.1625 4.00623,5.75 4.4612,5.75 0.45496,0 1.63885,-1.6875 2.63086,-3.75 z M 192.80147,292.65769 c 18.68265,-14.8396 41.62541,-24.51395 64.56097,-27.22363 7.32256,-0.86511 10.61655,-3.56719 18.04094,-14.79912 9.98183,-15.10093 15.08738,-27.98383 18.22971,-45.99925 1.57243,-9.01493 1.49862,-27.83692 -0.12488,-31.84762 -1.00938,-2.49358 -3.8067,-3.07034 -14.4762,-2.98476 -38.43147,0.30827 -77.47067,26.54191 -94.55102,63.53659 -7.27736,15.76218 -11.27069,37.36512 -9.96245,53.89436 0.78604,9.9314 1.87133,11.76574 6.96123,11.76574 2.59247,0 5.11824,-1.41491 11.3217,-6.34231 z M 153.15733,275 c 0.52339,-13.93407 1.18479,-19.59811 3.24586,-27.7966 5.99601,-23.85085 17.27991,-43.98327 34.0529,-60.75627 23.04524,-23.04524 51.85513,-35.88467 85.46201,-38.08706 7.61547,-0.49907 10.40919,-1.04939 10.82473,-2.13229 0.30806,-0.80278 -0.68118,-3.99055 -2.19831,-7.08392 -13.92288,-28.3882 -40.38933,-49.749443 -72.21435,-58.284666 -12.11391,-3.248857 -34.66604,-3.696809 -47.98212,-0.953067 -20.53334,4.230838 -38.61697,13.591329 -53.25659,27.566803 -23.412011,22.3499 -35.252627,49.22019 -35.264585,80.02707 -0.01278,32.91478 14.164715,63.92651 38.858925,84.9997 12.69159,10.83057 30.50151,20.89863 35.8142,20.24599 1.88581,-0.23166 2.03753,-1.24489 2.65733,-17.74569 z"
         id="path5" />
    </g>
  </g>
</svg>
